<?xml version="1.0" encoding="UTF-8"?>
<svg width="210mm" height="297mm" version="1.1" viewBox="0 0 744.09448819 1052.3622047" xmlns="http://www.w3.org/2000/svg">
 <path d="m371.84 321.65c-1.3682-16.91-2.1804-33.325 30.266-20.177 19.069-18.296 59.752-6.0722 19.457 18.016 15.712 31.817 7.2139 36.734-11.53 30.266-6.5287 21.855-15.811 28.107-28.104 17.295 0 0-52.665 21.465-30.987-20.177-16.956-18.808-6.2785-25.602 20.898-25.222z" fill="#83af08" fill-rule="evenodd"/>
 <path d="m285.91 262.26c-15.098-22.672-29.031-45.084 26.765-51.912 12.512-40.545 79.15-55.089 41.353 10.128 46.852 32.422 38.753 45.946 7.3999 51.474 7.8662 35.768-0.29262 51.778-25.976 46.181 0 0-57.205 71.175-59.224-4.1781-38.461-13.19-28.765-31.048 9.6823-51.693z" fill="#83af08" fill-rule="evenodd"/>
 <path d="m214.27 334.09c-0.90607-23.337-2.491-45.908-44.681-22.61-29.068-21.876-82.668 1.5102-23.636 27.819-16.252 46.068-3.8294 51.393 20.728 39.476 12.512 28.8 26.225 35.821 41.253 19.025 0 0 75.508 20.693 39.041-32.666 20.088-28.491 4.3785-36.024-32.705-31.043z" fill="#83af08" fill-rule="evenodd"/>
 <path d="m327.91 230.98c-28.263 78.695-43.043 145.62-29.357 233.99-33.43-58.418-74.868-94.374-129.18-131.5 54.745 54.031 96.321 105.51 117.13 160.06-8.7657 26.311-87.597 32.612-112.31 80.506-24.634 54.559-18.391 123.82 42.846 170.68 43.802 28.611 91.922 56.451 84.99 94.121-3.1566 28.542-9.726 52.847 4.916 81.477 8.5845 19.901 10.589 46.222-10.535 77.264 56.437-34.884 27.812-74.254 26.691-113.79 0.0545-65.498 49.143-98.555 92.717-132.75 85.025-66.799 87.761-159.84 21.07-212.83-24.11-17.281-85.494-18.671-84.99-57.598l-0.0684 8e-3c-3.2085-47.189 12.996-98.593 40.906-155.36-34.264 46.398-56.079 87.139-61.369 152.79-22.935-69.123-19.452-151.43-3.4609-247.07z" fill="#e2316d" fill-rule="evenodd"/>
 <path d="m400.78 543.8c-53.674 3.0568-41.786 33.112-22.299 34.068 55.139 6.6698 76.921 45.652 79.287 103.45l21.67-19.773c8.9975-33.708 3.2888-67.308-16.051-95.281-17.027-10.281-36.75-18.6-62.607-22.459z" fill="#ee739c" fill-rule="evenodd"/>
 <path d="m286.51 493.52c-8.7657 26.311-87.597 32.612-112.31 80.506-2.4843 5.5021-4.649 11.155-6.4805 16.918 28.591-36.524 79.153-59.865 131.76-81.98-5.5595-3.201-8.9369-10.033-12.967-15.443zm197 132.54c-27.765 92.071-96.759 115.43-145.39 172.72-27.607 27.888-32.231 52.493-40.186 77.574-0.58805 14.291 1.1103 28.494 9.0195 43.959 8.5845 19.901 10.589 46.222-10.535 77.264 56.437-34.884 27.812-74.254 26.691-113.79 0.0545-65.498 49.143-98.555 92.717-132.75 47.503-37.321 69.311-82.831 67.686-124.97z" fill="#b22454" fill-rule="evenodd"/>
 <path d="m222.19 587.46c-47.835 105.42 59.279 130.03 90.566 206.49-38.363-35.363-89.109-53.452-114.64-99.987l-0.074-104.09z" fill="#ee739c" fill-rule="evenodd"/>
 <path d="m200.45 570.55c8.113-17.945 40.319 0.87438 27.774 10.868-32.181 27.18-26.084 73.499-27.774 115.92-18.286-42.264-17.127-84.528 0-126.79z" fill="#fff" fill-rule="evenodd"/>
 <ellipse cx="419.02" cy="578.4" rx="19.321" ry="13.887" color="#000000" color-rendering="auto" fill="#fff" image-rendering="auto" shape-rendering="auto" solid-color="#000000" style="isolation:auto;mix-blend-mode:normal"/>
 <ellipse cx="388.83" cy="559.38" rx="9.6604" ry="6.9434" color="#000000" color-rendering="auto" fill="#fff" image-rendering="auto" shape-rendering="auto" solid-color="#000000" style="isolation:auto;mix-blend-mode:normal"/>
</svg>
